<svg width="217" height="203" viewBox="0 0 217 203" fill="none" xmlns="http://www.w3.org/2000/svg">
<circle cx="100" cy="100" r="99" fill="white" stroke="#5D5360" stroke-width="2"/>
<g clip-path="url(#clip0)" filter="url(#filter0_d)">
<path fill-rule="evenodd" clip-rule="evenodd" d="M164.766 94.7077H213V111.464C213 115.607 209.619 118.99 205.479 118.99H188.13L177.78 124.218L164.766 118.99V94.7077H164.766Z" fill="#FFE07D"/>
<path fill-rule="evenodd" clip-rule="evenodd" d="M172.287 70.3925H205.48C209.619 70.3925 213 73.7762 213 77.9191V90.3696H164.766V77.9191C164.766 73.7762 168.147 70.3925 172.287 70.3925Z" fill="#FFE07D"/>
<path fill-rule="evenodd" clip-rule="evenodd" d="M164.766 86.6171H213V98.4495H164.766V86.6171Z" fill="#FF8086"/>
<path fill-rule="evenodd" clip-rule="evenodd" d="M202.933 86.6171H209.11H213V77.9191C213 75.0884 211.418 72.6158 209.11 71.3359C208.026 70.7395 206.791 70.3922 205.479 70.3922H195.412C199.551 70.3922 202.932 73.7758 202.932 77.9187V86.6171H202.933Z" fill="#FFC269"/>
<path fill-rule="evenodd" clip-rule="evenodd" d="M202.933 98.4495H209.109H213V94.7077V90.3696V86.6171H209.109H202.933V90.3696V94.7077V98.4495Z" fill="#F76672"/>
<path fill-rule="evenodd" clip-rule="evenodd" d="M202.932 98.4495V111.464C202.932 115.607 199.551 118.991 195.412 118.991H205.479C206.79 118.991 208.026 118.654 209.11 118.058C211.418 116.767 213 114.295 213 111.464V98.4495H209.11H202.932Z" fill="#FFC269"/>
<path fill-rule="evenodd" clip-rule="evenodd" d="M164.766 118.991H188.13V129.738C188.13 132.32 186.017 134.423 183.449 134.423H107.378C107.378 127.667 107.378 124.229 112.547 124.229L122.842 124.218C129.323 124.207 133.57 122.548 135.944 118.99H164.766V118.991Z" fill="#6F6571"/>
<path fill-rule="evenodd" clip-rule="evenodd" d="M116.553 134.424H183.448C187.371 141.256 190.525 149.466 187.804 165.17C183.253 149.683 137.024 155.865 132.277 173.738H81.269C79.3401 169.367 77.5195 165.051 75.9264 160.691H90.3066C119.392 149.715 110.04 154.607 116.553 134.424Z" fill="#FFE07D"/>
<path fill-rule="evenodd" clip-rule="evenodd" d="M112.425 92.4411C113.422 97.6902 114.776 102.864 116.293 107.267L130.998 113.028L147.394 107.267C146.82 76.238 135.225 61.3583 125.363 56.543C121.809 53.8366 118.168 52.8172 118.168 52.8172C118.168 52.8172 113.378 60.4799 113.129 60.4799C111.286 64.8614 110.593 70.577 110.712 76.7479L112.425 92.4411Z" fill="#ECEAEC"/>
<path fill-rule="evenodd" clip-rule="evenodd" d="M147.395 107.267H116.293C109.13 108.047 100.32 113.503 100.32 130.4V148.11L107.378 152.314L116.553 148.11V134.423C116.553 127.667 116.553 124.229 121.722 124.229L132.017 124.218C138.497 124.207 142.745 122.548 145.118 118.99C146.95 116.247 147.654 112.375 147.395 107.267Z" fill="#FF8086"/>
<path fill-rule="evenodd" clip-rule="evenodd" d="M147.395 107.267C146.82 76.238 135.225 61.3583 125.363 56.543C123.901 57.5731 122.275 58.4192 120.487 59.0482C129.221 65.6529 137.977 80.4136 138.476 107.267H147.395Z" fill="#DAD8DB"/>
<path fill-rule="evenodd" clip-rule="evenodd" d="M147.395 107.267H138.476C138.736 112.375 138.032 116.247 136.201 118.991C134.705 121.236 132.451 123.133 129.362 124.218H132.018C138.498 124.207 142.746 122.548 145.119 118.991C146.95 116.247 147.654 112.375 147.395 107.267Z" fill="#F76672"/>
<path fill-rule="evenodd" clip-rule="evenodd" d="M132.277 173.738C132.277 157.698 144.989 144.922 160.669 144.922C173.424 144.922 184.217 153.381 187.804 165.17C188.541 167.589 188.975 170.159 189.051 172.827C189.083 173.868 188.368 173.738 187.393 173.738C169.025 173.738 150.645 173.727 132.277 173.738Z" fill="#FF8086"/>
<path fill-rule="evenodd" clip-rule="evenodd" d="M139.419 173.738H182.636C182.018 185.386 172.58 194.648 161.027 194.648C149.475 194.648 140.036 185.386 139.419 173.738Z" fill="#6F6571"/>
<path fill-rule="evenodd" clip-rule="evenodd" d="M29.6752 169.129L66.8558 177.686C64.4934 187.957 54.2527 194.377 43.9905 192.013C33.7175 189.648 27.3128 179.399 29.6752 169.129Z" fill="#6F6571"/>
<path fill-rule="evenodd" clip-rule="evenodd" d="M26.8905 158.706C32.1463 151.06 41.2708 146.624 50.8072 147.579C67.6259 151.136 73.0984 161.19 74.1928 173.727C74.1712 175.43 73.9868 177.144 73.6183 178.857C73.5099 179.335 73.1956 179.139 72.6754 179.02L66.8559 177.686L29.6752 169.129L26.8902 168.489L23 167.589C23.7478 164.313 25.0915 161.32 26.8905 158.706Z" fill="#ECEAEC"/>
<path fill-rule="evenodd" clip-rule="evenodd" d="M50.7742 147.536L65.7938 95.5646L72.5559 92.5387L80.1199 95.5646C70.1827 123.112 72.9567 142.341 79.6649 160.691C81.2688 165.051 83.0894 169.367 85.0076 173.738H74.2032L50.7742 147.536Z" fill="#FF8086"/>
<path fill-rule="evenodd" clip-rule="evenodd" d="M97.2856 37.2925L114.906 33.54C116.694 33.7025 121.809 37.9976 121.809 40.6872L118.06 59.7533C116.499 60.2198 114.841 60.4799 113.129 60.4799C103.745 60.4799 96.1371 52.8558 96.1371 43.4634C96.1371 41.2836 96.5379 39.201 97.2856 37.2925Z" fill="#FFECE4"/>
<path fill-rule="evenodd" clip-rule="evenodd" d="M91.5961 37.2925C91.5961 25.1674 101.197 15.3523 113.053 15.3523C124.908 15.3523 134.509 25.1674 134.509 37.2925C134.509 45.2962 131.258 52.4108 125.363 56.543C123.261 58.0288 120.812 59.1243 118.059 59.7533V40.6869C118.059 37.9972 116.694 37.455 114.906 37.2921H97.2853H91.5961V37.2925Z" fill="#FF8086"/>
<path fill-rule="evenodd" clip-rule="evenodd" d="M101.826 18.5949C105.088 16.5342 108.935 15.3523 113.053 15.3523C124.908 15.3523 134.51 25.1674 134.51 37.2925C134.51 45.2962 131.258 52.4108 125.363 56.543C123.868 57.595 122.21 58.4519 120.389 59.0809C124.745 54.6667 127.108 48.3333 127.108 41.3485C127.108 28.6812 117.062 18.4105 104.676 18.4105C103.712 18.4105 102.758 18.4647 101.826 18.5949Z" fill="#F76672"/>
<path fill-rule="evenodd" clip-rule="evenodd" d="M100.32 148.11H116.554V158.338C116.554 160.529 115.362 160.691 113.606 160.691H90.3072C89.8407 150.431 96.0502 148.11 100.32 148.11Z" fill="#6F6571"/>
<path fill-rule="evenodd" clip-rule="evenodd" d="M79.6653 160.691C72.9574 142.341 70.1831 123.112 80.1202 95.5646H74.5501C74.5286 95.5646 74.5067 95.5646 74.4852 95.5646H72.4805C62.5434 123.112 65.3065 142.341 72.0252 160.691C73.6183 165.051 75.4389 169.367 77.3678 173.738H81.2691H85.0079C83.0897 169.367 81.2691 165.051 79.6653 160.691Z" fill="#F76672"/>
<path fill-rule="evenodd" clip-rule="evenodd" d="M74.1929 173.727L50.8073 147.579C48.3907 147.34 45.9957 147.438 43.6875 147.861L66.1628 172.99C66.1413 174.454 66.0002 175.939 65.7186 177.425L66.8564 177.685L72.6759 179.02C73.1961 179.139 73.5104 179.334 73.6188 178.857C73.9869 177.144 74.171 175.43 74.1929 173.727Z" fill="#DAD8DB"/>
<path fill-rule="evenodd" clip-rule="evenodd" d="M183.448 134.424H116.553V140.313H171.517C175.993 140.313 178.117 142.243 179.862 146.158C181.368 149.553 181.401 150.659 182.083 154.759C184.651 157.741 186.624 161.277 187.805 165.17C190.525 149.466 187.371 141.256 183.448 134.424Z" fill="#FFC269"/>
<path fill-rule="evenodd" clip-rule="evenodd" d="M182.083 154.759C176.881 148.717 169.22 144.922 160.67 144.922C158.524 144.922 156.443 145.161 154.438 145.605C167.237 148.501 176.188 159.802 176.578 172.827C176.599 173.543 176.274 173.705 175.754 173.738H182.636H187.393C188.368 173.738 189.084 173.868 189.051 172.827C188.975 170.159 188.542 167.589 187.805 165.17C187.783 165.094 187.762 165.029 187.74 164.964C187.74 164.964 187.74 164.964 187.74 164.954C186.548 161.146 184.608 157.687 182.083 154.759Z" fill="#F76672"/>
<path fill-rule="evenodd" clip-rule="evenodd" d="M65.7186 177.425L29.6754 169.129C29.2746 170.831 29.1336 172.545 29.1985 174.215L57.8072 180.799L58.9342 181.059C57.8722 185.722 55.174 189.594 51.587 192.208C58.9016 190.917 65.0896 185.386 66.856 177.686L65.7186 177.425Z" fill="#5D5360"/>
<path fill-rule="evenodd" clip-rule="evenodd" d="M175.754 173.738H139.418C139.538 176.015 140.004 178.206 140.751 180.256H166.066H172.947C172.676 185.353 170.726 189.984 167.648 193.596C176.003 190.852 182.147 183.054 182.635 173.738H175.754V173.738Z" fill="#5D5360"/>
<path fill-rule="evenodd" clip-rule="evenodd" d="M188.13 129.738V118.991H173.446V129.738C173.446 132.32 171.333 134.423 168.765 134.423H183.448C186.017 134.424 188.13 132.32 188.13 129.738Z" fill="#5D5360"/>
<path fill-rule="evenodd" clip-rule="evenodd" d="M96.2236 41.6413H110.701C112.489 41.8039 113.855 42.3572 113.855 45.0469V60.458C115.307 60.3931 116.716 60.1545 118.06 59.7529V40.6869C118.06 37.9972 116.694 37.455 114.906 37.2921H97.2857C96.7547 38.6589 96.3862 40.1228 96.2236 41.6413Z" fill="#FFDDCE"/>
<path fill-rule="evenodd" clip-rule="evenodd" d="M62.6627 79.199L82.9381 85.9013C83.9352 86.7904 82.8082 95.8574 82.1362 95.5646H65.7943H58.5662V80.6414C58.5662 77.7024 60.0943 78.3529 62.6627 79.199Z" fill="#FFE07D"/>
<path fill-rule="evenodd" clip-rule="evenodd" d="M92.3874 95.5646H90.6859H82.1359C76.6307 95.5646 76.4682 86.4327 82.9378 85.9013L92.3874 85.142L94.923 90.5106L92.3874 95.5646Z" fill="#FFECE4"/>
<path fill-rule="evenodd" clip-rule="evenodd" d="M110.712 76.7479L114.104 73.8304C122.6 66.5098 133.339 78.8628 121.983 86.2375L112.425 92.4411L107.613 95.5646H92.3875V85.142L101.848 84.372L110.712 76.7479Z" fill="#FF8086"/>
<path fill-rule="evenodd" clip-rule="evenodd" d="M92.3875 95.5646V90.5107H90.3609H89.2666H87.5543H79.0043C78.6793 90.5107 78.3757 90.4891 78.0833 90.4238C77.769 92.9398 79.1888 95.5646 82.1364 95.5646H90.6864H92.3875Z" fill="#FFDDCE"/>
<path fill-rule="evenodd" clip-rule="evenodd" d="M121.983 86.2375C128.853 81.7692 127.639 75.4899 123.727 72.8436C124.042 75.5548 122.752 78.6676 118.851 81.1947L111.406 86.0208L109.304 87.3983L104.492 90.511H92.3875V95.565H107.613L112.425 92.4415L121.983 86.2375Z" fill="#F76672"/>
<path fill-rule="evenodd" clip-rule="evenodd" d="M82.9379 85.9013L74.7779 83.2116C72.047 86.1399 70.7248 91.8444 72.4805 95.5646H80.1202H82.1359C79.1883 95.5646 77.7689 92.9398 78.0829 90.4238C78.3645 88.244 79.9361 86.1507 82.9379 85.9013Z" fill="#FFC269"/>
</g>
<defs>
<filter id="filter0_d" x="19" y="10" width="198" height="198" filterUnits="userSpaceOnUse" color-interpolation-filters="sRGB">
<feFlood flood-opacity="0" result="BackgroundImageFix"/>
<feColorMatrix in="SourceAlpha" type="matrix" values="0 0 0 0 0 0 0 0 0 0 0 0 0 0 0 0 0 0 127 0" result="hardAlpha"/>
<feOffset dy="4"/>
<feGaussianBlur stdDeviation="2"/>
<feColorMatrix type="matrix" values="0 0 0 0 0 0 0 0 0 0 0 0 0 0 0 0 0 0 0.25 0"/>
<feBlend mode="normal" in2="BackgroundImageFix" result="effect1_dropShadow"/>
<feBlend mode="normal" in="SourceGraphic" in2="effect1_dropShadow" result="shape"/>
</filter>
<clipPath id="clip0">
<rect width="190" height="190" fill="white" transform="translate(23 10)"/>
</clipPath>
</defs>
</svg>
