<svg width="2353" height="365" viewBox="0 0 2353 365" fill="none" xmlns="http://www.w3.org/2000/svg">
<g clip-path="url(#clip0)">
<path d="M0.0332031 363.479V0.580078H40.0332V238.426L160.533 108.469H199.533L203.033 115.825L110.033 215.377L210.033 356.123L206.533 363.479H167.533L83.5332 243.821L40.0332 289.918V363.479H0.0332031ZM260.194 289.918V182.03C260.194 132.989 285.194 108.469 335.194 108.469H405.194C455.194 108.469 480.194 132.989 480.194 182.03V289.918C480.194 338.959 455.194 363.479 405.194 363.479H335.194C285.194 363.479 260.194 338.959 260.194 289.918ZM300.194 294.823C300.194 317.708 311.86 329.151 335.194 329.151H405.194C428.527 329.151 440.194 317.708 440.194 294.823V177.126C440.194 154.24 428.527 142.797 405.194 142.797H335.194C311.86 142.797 300.194 154.24 300.194 177.126V294.823ZM552.186 289.918V182.03C552.186 132.989 577.186 108.469 627.186 108.469H727.186V0.580078H767.186V363.479H627.186C577.186 363.479 552.186 338.959 552.186 289.918ZM592.186 294.823C592.186 317.708 603.852 329.151 627.186 329.151H727.186V142.797H627.186C603.852 142.797 592.186 154.24 592.186 177.126V294.823ZM843.201 289.918V182.03C843.201 132.989 868.201 108.469 918.201 108.469H983.201C1033.21 108.469 1058.21 132.989 1058.21 182.03V252.648H883.201V294.823C883.201 317.708 894.868 329.151 918.201 329.151H1048.21V348.767L1028.21 363.479H918.201C868.201 363.479 843.201 338.959 843.201 289.918ZM883.201 218.32H1018.21V177.126C1018.21 154.24 1006.54 142.797 983.201 142.797H918.201C894.868 142.797 883.201 154.24 883.201 177.126V218.32ZM1134.31 363.479V0.580078H1174.31V238.426L1294.81 108.469H1333.81L1337.31 115.825L1244.31 215.377L1344.31 356.123L1340.81 363.479H1301.81L1217.81 243.821L1174.31 289.918V363.479H1134.31ZM1754.41 363.479C1704.08 363.479 1678.91 338.795 1678.91 289.428C1678.91 240.06 1704.08 215.377 1754.41 215.377H1845.91V177.126C1845.91 154.24 1834.24 142.797 1810.91 142.797H1703.91V123.181L1723.91 108.469H1810.91C1860.91 108.469 1885.91 132.989 1885.91 182.03V363.479H1754.41ZM1718.91 294.823C1718.91 317.708 1730.58 329.151 1753.91 329.151H1845.91V249.705H1753.91C1730.58 249.705 1718.91 261.147 1718.91 284.034V294.823ZM1953.9 348.767V329.151H2068.9C2092.24 329.151 2103.9 317.708 2103.9 294.823C2103.9 271.936 2093.9 258.859 2073.9 255.59L2013.9 245.782C1973.9 239.243 1953.9 217.665 1953.9 181.049C1953.9 132.662 1978.9 108.469 2028.9 108.469H2111.9L2131.9 123.181V142.797H2028.9C2005.57 142.797 1993.9 154.24 1993.9 177.126C1993.9 196.742 2003.9 208.184 2023.9 211.454L2083.9 221.262C2123.9 227.8 2143.9 251.013 2143.9 290.899C2143.9 339.285 2118.9 363.479 2068.9 363.479H1973.9L1953.9 348.767ZM2211.9 289.918V25.1002H2251.9V108.469H2346.9V142.797H2251.9V294.823C2251.9 317.708 2263.57 329.151 2286.9 329.151H2351.9V348.767L2331.9 363.479H2286.9C2236.9 363.479 2211.9 338.959 2211.9 289.918Z" fill="white"/>
<path d="M1391.96 285.995V183.5C1391.96 131.844 1418.3 106.017 1470.96 106.017H1540.96C1593.3 106.017 1619.46 131.844 1619.46 183.5V285.995C1619.46 337.65 1593.3 363.478 1540.96 363.478H1470.96C1418.3 363.478 1391.96 337.65 1391.96 285.995ZM1450.46 290.899C1450.46 305.937 1458.13 313.457 1473.46 313.457H1537.96C1553.63 313.457 1561.46 305.937 1561.46 290.899V178.596C1561.46 163.23 1553.63 155.547 1537.96 155.547H1473.46C1458.13 155.547 1450.46 163.23 1450.46 178.596V290.899Z" fill="url(#paint0_linear)"/>
</g>
<defs>
<linearGradient id="paint0_linear" x1="1165.03" y1="-85.7315" x2="1165.03" y2="527.273" gradientUnits="userSpaceOnUse">
<stop offset="0.357058" stop-color="#0D9D00"/>
<stop offset="0.872714" stop-color="#9BF993"/>
</linearGradient>
<clipPath id="clip0">
<rect width="2352" height="363.879" fill="white" transform="translate(0.00585938 0.359375)"/>
</clipPath>
</defs>
</svg>
