<svg width="212" height="207" viewBox="0 0 212 207" fill="none" xmlns="http://www.w3.org/2000/svg">
<circle cx="101" cy="101" r="100.5" fill="white" stroke="white"/>
<g filter="url(#filter0_d)">
<path d="M206.375 110.46V181.511C206.375 183.663 205.521 185.727 203.999 187.249C202.477 188.772 200.414 189.627 198.261 189.628H150.087C149.021 189.628 147.966 189.418 146.981 189.01C145.996 188.602 145.102 188.004 144.348 187.25C143.595 186.496 142.997 185.602 142.59 184.617C142.182 183.632 141.972 182.577 141.973 181.511V110.46C141.972 109.394 142.182 108.339 142.59 107.355C142.998 106.37 143.595 105.476 144.349 104.722C145.102 103.969 145.997 103.371 146.981 102.963C147.966 102.556 149.021 102.346 150.087 102.346H161.045V102.371C161.045 103.163 161.201 103.947 161.504 104.679C161.807 105.412 162.251 106.077 162.811 106.637C163.372 107.197 164.037 107.641 164.769 107.945C165.501 108.248 166.285 108.404 167.078 108.403H181.27C182.063 108.404 182.847 108.248 183.579 107.945C184.311 107.641 184.976 107.197 185.537 106.637C186.097 106.077 186.541 105.412 186.844 104.679C187.147 103.947 187.303 103.163 187.303 102.371V102.346H198.261C200.413 102.346 202.477 103.201 203.999 104.723C205.52 106.244 206.375 108.308 206.375 110.46ZM164.511 155.442V143.848H152.92V155.442H164.511Z" fill="#F8EC7D"/>
<path d="M161.044 102.346V101.977C161.044 101.185 161.2 100.4 161.503 99.668C161.806 98.936 162.251 98.2709 162.811 97.7106C163.371 97.1504 164.036 96.706 164.768 96.4029C165.5 96.0998 166.285 95.9439 167.077 95.9441H181.27C182.062 95.9439 182.847 96.0998 183.579 96.4029C184.311 96.706 184.976 97.1504 185.536 97.7106C186.096 98.2709 186.541 98.936 186.844 99.668C187.147 100.4 187.303 101.185 187.303 101.977V102.371C187.303 103.163 187.147 103.948 186.844 104.68C186.541 105.412 186.096 106.077 185.536 106.637C184.976 107.197 184.311 107.642 183.579 107.945C182.847 108.248 182.062 108.404 181.27 108.403H167.077C166.285 108.404 165.5 108.248 164.768 107.945C164.036 107.642 163.371 107.197 162.811 106.637C162.251 106.077 161.806 105.412 161.503 104.68C161.2 103.948 161.044 103.163 161.044 102.371V102.346Z" fill="#6FE3FF"/>
<path d="M169.57 70.6632V95.9441H167.077C166.285 95.9439 165.5 96.0998 164.768 96.4029C164.036 96.706 163.371 97.1504 162.811 97.7106C162.251 98.2709 161.806 98.936 161.503 99.668C161.2 100.4 161.044 101.185 161.044 101.977V102.346H150.086C149.02 102.346 147.965 102.556 146.981 102.963C145.996 103.371 145.102 103.969 144.348 104.722C143.595 105.476 142.997 106.37 142.589 107.355C142.182 108.339 141.972 109.394 141.972 110.46V162.773L103.595 184.928V108.744L169.563 70.6597L169.57 70.6632Z" fill="#C16752"/>
<path d="M103.596 108.744L69.9651 89.3277L135.929 51.2394H135.932L169.563 70.6597L103.596 108.744Z" fill="#AF593C"/>
<path d="M164.511 143.848H152.92V155.443H164.511V143.848Z" fill="#6FE3FF"/>
<path d="M135.929 51.2394L69.965 89.3277L37.6318 70.6597L103.595 32.5714L135.929 51.2394Z" fill="#C16752"/>
<path d="M103.596 108.744V184.928L37.625 146.84V70.6632L37.632 70.6597L69.9652 89.3277L103.596 108.744Z" fill="#E48E66"/>
<path d="M155.497 135.361H152.92C152.267 135.361 151.641 135.102 151.18 134.64C150.718 134.179 150.459 133.553 150.459 132.9V121.306C150.459 120.653 150.718 120.027 151.18 119.566C151.641 119.104 152.267 118.845 152.92 118.845H164.511C165.164 118.845 165.79 119.104 166.251 119.566C166.713 120.027 166.972 120.653 166.972 121.306V122.962C166.972 123.544 166.766 124.108 166.391 124.552C166.015 124.997 165.493 125.294 164.919 125.391C164.345 125.487 163.755 125.377 163.254 125.08C162.754 124.782 162.375 124.317 162.185 123.767H155.381V130.439H155.497C156.15 130.439 156.775 130.699 157.237 131.16C157.699 131.622 157.958 132.248 157.958 132.9C157.958 133.553 157.699 134.179 157.237 134.64C156.775 135.102 156.15 135.361 155.497 135.361Z" fill="#6FE3FF"/>
<path d="M155.497 180.442H152.92C152.267 180.442 151.641 180.183 151.18 179.721C150.718 179.26 150.459 178.634 150.459 177.981V166.39C150.459 165.737 150.718 165.112 151.18 164.65C151.641 164.189 152.267 163.929 152.92 163.929H164.511C165.164 163.929 165.79 164.189 166.251 164.65C166.713 165.112 166.972 165.737 166.972 166.39V168.76C166.978 169.083 166.92 169.404 166.802 169.705C166.684 170.006 166.508 170.28 166.283 170.513C166.059 170.746 165.791 170.932 165.495 171.062C165.199 171.191 164.88 171.26 164.557 171.266C164.233 171.272 163.912 171.215 163.611 171.096C163.311 170.978 163.036 170.802 162.803 170.578C162.57 170.354 162.384 170.086 162.255 169.789C162.126 169.493 162.056 169.174 162.05 168.851H155.381V175.52H155.497C156.15 175.52 156.776 175.78 157.237 176.241C157.699 176.703 157.958 177.328 157.958 177.981C157.958 178.634 157.699 179.26 157.237 179.721C156.776 180.183 156.15 180.442 155.497 180.442Z" fill="#6FE3FF"/>
<path d="M162.971 135.003C162.648 135.003 162.328 134.94 162.03 134.816C161.731 134.693 161.46 134.511 161.232 134.283L157.297 130.352C157.068 130.124 156.887 129.852 156.764 129.554C156.64 129.255 156.576 128.935 156.576 128.612C156.576 128.289 156.64 127.969 156.764 127.67C156.887 127.372 157.068 127.1 157.297 126.872C157.526 126.643 157.797 126.462 158.095 126.338C158.394 126.215 158.714 126.151 159.037 126.151C159.36 126.151 159.68 126.215 159.979 126.338C160.278 126.462 160.549 126.643 160.777 126.872L162.972 129.064L170.179 121.857C170.407 121.628 170.678 121.447 170.977 121.323C171.276 121.199 171.596 121.136 171.919 121.136C172.242 121.136 172.562 121.199 172.861 121.323C173.159 121.447 173.431 121.628 173.659 121.857C173.888 122.085 174.069 122.356 174.193 122.655C174.316 122.954 174.38 123.274 174.38 123.597C174.38 123.92 174.316 124.24 174.193 124.539C174.069 124.837 173.888 125.109 173.659 125.337L164.712 134.284C164.483 134.513 164.212 134.694 163.913 134.817C163.614 134.94 163.294 135.003 162.971 135.003Z" fill="#2561A1"/>
<path d="M162.971 180.442C162.648 180.443 162.328 180.379 162.03 180.256C161.731 180.132 161.46 179.951 161.232 179.722L157.297 175.792C157.068 175.563 156.887 175.292 156.764 174.993C156.64 174.695 156.576 174.375 156.576 174.051C156.576 173.728 156.64 173.408 156.764 173.11C156.887 172.811 157.068 172.54 157.297 172.311C157.526 172.083 157.797 171.901 158.095 171.778C158.394 171.654 158.714 171.59 159.037 171.59C159.36 171.59 159.68 171.654 159.979 171.778C160.278 171.901 160.549 172.083 160.777 172.311L162.972 174.503L170.179 167.296C170.407 167.068 170.678 166.886 170.977 166.763C171.276 166.639 171.596 166.575 171.919 166.575C172.242 166.575 172.562 166.639 172.861 166.763C173.159 166.886 173.431 167.068 173.659 167.296C173.888 167.525 174.069 167.796 174.193 168.095C174.316 168.393 174.38 168.713 174.38 169.036C174.38 169.36 174.316 169.68 174.193 169.978C174.069 170.277 173.888 170.548 173.659 170.777L164.712 179.724C164.483 179.952 164.212 180.133 163.913 180.257C163.614 180.38 163.294 180.443 162.971 180.442Z" fill="#2561A1"/>
<path d="M195.427 129.564H179.969C179.316 129.564 178.69 129.305 178.229 128.843C177.767 128.382 177.508 127.756 177.508 127.103C177.508 126.45 177.767 125.824 178.229 125.363C178.69 124.901 179.316 124.642 179.969 124.642H195.427C196.08 124.642 196.706 124.901 197.167 125.363C197.629 125.824 197.888 126.45 197.888 127.103C197.888 127.756 197.629 128.382 197.167 128.843C196.706 129.305 196.08 129.564 195.427 129.564Z" fill="#E48E66"/>
<path d="M195.427 152.106H179.969C179.316 152.106 178.69 151.847 178.229 151.385C177.767 150.924 177.508 150.298 177.508 149.645C177.508 148.993 177.767 148.367 178.229 147.905C178.69 147.444 179.316 147.184 179.969 147.184H195.427C196.08 147.184 196.706 147.444 197.167 147.905C197.629 148.367 197.888 148.993 197.888 149.645C197.888 150.298 197.629 150.924 197.167 151.385C196.706 151.847 196.08 152.106 195.427 152.106Z" fill="#E48E66"/>
<path d="M195.427 174.648H179.969C179.316 174.648 178.69 174.389 178.229 173.928C177.767 173.466 177.508 172.84 177.508 172.187C177.508 171.535 177.767 170.909 178.229 170.447C178.69 169.986 179.316 169.727 179.969 169.727H195.427C196.08 169.727 196.706 169.986 197.167 170.447C197.629 170.909 197.888 171.535 197.888 172.187C197.888 172.84 197.629 173.466 197.167 173.928C196.706 174.389 196.08 174.648 195.427 174.648Z" fill="#E48E66"/>
</g>
<defs>
<filter id="filter0_d" x="28" y="27" width="188" height="188" filterUnits="userSpaceOnUse" color-interpolation-filters="sRGB">
<feFlood flood-opacity="0" result="BackgroundImageFix"/>
<feColorMatrix in="SourceAlpha" type="matrix" values="0 0 0 0 0 0 0 0 0 0 0 0 0 0 0 0 0 0 127 0" result="hardAlpha"/>
<feOffset dy="4"/>
<feGaussianBlur stdDeviation="2"/>
<feColorMatrix type="matrix" values="0 0 0 0 0 0 0 0 0 0 0 0 0 0 0 0 0 0 0.25 0"/>
<feBlend mode="normal" in2="BackgroundImageFix" result="effect1_dropShadow"/>
<feBlend mode="normal" in="SourceGraphic" in2="effect1_dropShadow" result="shape"/>
</filter>
</defs>
</svg>
