<svg width="742" height="847" viewBox="0 0 742 847" fill="none" xmlns="http://www.w3.org/2000/svg">
<path d="M455.699 82.9013C476.053 68.3774 518.376 21.7299 543.855 -7H688L678.03 845H18.7837C-25.4153 752.954 18.6452 740.115 46.2004 703.137C114.652 579.008 84.7425 461.889 91.8948 411.989C125.393 178.285 249.243 120.429 336.062 120.429C423.234 120.429 439.156 94.7047 455.699 82.9013Z" fill="#FFE5BE"/>
<path d="M505.361 78.4647C525.745 63.8498 568.13 16.91 593.645 -12H738L728.016 847H67.811C23.5477 754.377 67.6723 739.798 95.2675 702.588C163.818 577.681 133.866 459.828 141.028 409.615C174.575 174.446 298.605 116.228 385.551 116.228C472.849 116.228 488.795 90.3422 505.361 78.4647Z" fill="#FFA012"/>
<path d="M521.699 82.9382C542.053 68.4083 584.376 21.7417 609.855 -7H754L744.03 847H84.7837C40.5847 754.917 84.6452 740.422 112.2 703.429C180.652 579.248 150.742 462.081 157.895 412.161C191.393 178.361 315.243 120.481 402.062 120.481C489.234 120.481 505.156 94.7465 521.699 82.9382Z" fill="#F59505"/>
</svg>
