<svg width="204" height="208" viewBox="0 0 204 208" fill="none" xmlns="http://www.w3.org/2000/svg">
<circle cx="100" cy="100" r="99.5" fill="white" stroke="#3F5A5A"/>
<g clip-path="url(#clip0)" filter="url(#filter0_d)">
<path d="M74.9137 131.882H57.6196V67.647C57.6196 58.0957 65.3625 50.3529 74.9137 50.3529V131.882Z" fill="url(#paint0_linear)"/>
<path d="M182.446 187.16V32.84C182.446 25.7487 176.697 20 169.606 20H78.9132C71.8219 20 66.0732 25.7487 66.0732 32.84V187.16C66.0732 194.251 71.8219 200 78.9132 200H169.606C176.697 200 182.446 194.251 182.446 187.16Z" fill="url(#paint1_linear)"/>
<path d="M173.606 185.146V34.8535C173.606 31.6679 171.024 29.0854 167.838 29.0854H80.6817C77.496 29.0854 74.9136 31.6679 74.9136 34.8535V185.146C74.9136 188.332 77.496 190.915 80.6817 190.915H167.838C171.024 190.915 173.606 188.332 173.606 185.146Z" fill="url(#paint2_linear)"/>
<path d="M66.0732 154.118V187.16C66.0732 194.251 71.8219 200 78.9132 200H169.606C176.697 200 182.446 194.251 182.446 187.16V154.118H66.0732Z" fill="url(#paint3_linear)"/>
<path d="M78.9132 200H169.606C173.349 200 176.717 198.397 179.064 195.842L88.7995 105.578L66.0732 128.304V187.16C66.0732 194.251 71.8219 200 78.9132 200Z" fill="url(#paint4_linear)"/>
<path d="M167.075 178.187V41.8132C167.075 38.9596 164.762 36.6461 161.908 36.6461H86.6114C83.7579 36.6461 81.4443 38.9596 81.4443 41.8132V178.187C81.4443 181.04 83.7579 183.354 86.6114 183.354H161.908C164.762 183.354 167.075 181.04 167.075 178.187Z" fill="url(#paint5_linear)"/>
<path d="M86.6113 183.354H161.908C163.208 183.354 164.392 182.87 165.3 182.078L88.7995 105.578L81.4438 112.933V178.187C81.4442 181.04 83.7574 183.354 86.6113 183.354Z" fill="url(#paint6_linear)"/>
<path d="M167.075 83.1973L136.14 52.262C133.464 49.2316 129.586 47.2079 124.971 47.1147C124.852 47.1122 124.732 47.1112 124.612 47.1112C124.492 47.1112 124.373 47.1126 124.253 47.1147C112.052 47.3621 104.995 61.0961 111.717 71.2813L122.962 88.3188C123.209 88.693 123.551 88.9481 123.929 89.0858L167.075 132.232V83.1973Z" fill="url(#paint7_linear)"/>
<path d="M103.611 163.007H90.2843C89.9123 163.007 89.6108 162.705 89.6108 162.333V158.386C89.6108 158.014 89.9123 157.712 90.2843 157.712H103.611C103.983 157.712 104.284 158.014 104.284 158.386V162.333C104.284 162.705 103.983 163.007 103.611 163.007Z" fill="#A2AEE6"/>
<path d="M120.552 173.242H90.2843C89.9123 173.242 89.6108 172.941 89.6108 172.569V168.621C89.6108 168.249 89.9123 167.948 90.2843 167.948H120.552C120.924 167.948 121.226 168.249 121.226 168.621V172.569C121.225 172.941 120.924 173.242 120.552 173.242Z" fill="#A2AEE6"/>
<path d="M167.075 178.187V104.373L159.186 96.4841C158.912 95.3392 157.884 94.4872 156.654 94.4872H92.5706C91.1309 94.4872 89.9641 95.6544 89.9641 97.0937V150.468C89.9641 151.698 90.8161 152.725 91.9611 153L122.314 183.354H161.908C164.762 183.354 167.075 181.04 167.075 178.187Z" fill="url(#paint8_linear)"/>
<path d="M156.303 152.723H92.2187C90.779 152.723 89.6122 151.556 89.6122 150.117V96.7417C89.6122 95.302 90.7794 94.1352 92.2187 94.1352H156.303C157.742 94.1352 158.909 95.3024 158.909 96.7417V150.116C158.909 151.556 157.742 152.723 156.303 152.723Z" fill="url(#paint9_linear)"/>
<path d="M92.218 152.722H135.945L89.6112 106.389V150.116C89.6112 151.555 90.7784 152.722 92.218 152.722Z" fill="url(#paint10_linear)"/>
<path d="M158.909 96.7407V150.116C158.909 151.555 157.742 152.722 156.303 152.722H147.797L105.815 110.74V94.1346H156.303C157.742 94.1346 158.909 95.3018 158.909 96.7407Z" fill="url(#paint11_linear)"/>
<path d="M156.302 94.1342H138.094C139.534 94.1342 140.701 95.3014 140.701 96.7407V150.115C140.701 151.555 139.534 152.722 138.094 152.722H156.302C157.742 152.722 158.908 151.555 158.908 150.115V96.741C158.908 95.3014 157.742 94.1342 156.302 94.1342Z" fill="url(#paint12_linear)"/>
<path d="M89.6112 138.591V150.116C89.6112 151.555 90.7784 152.722 92.2177 152.722H156.302C157.741 152.722 158.908 151.555 158.908 150.116V138.591H89.6112Z" fill="url(#paint13_linear)"/>
<path d="M108.49 111.187L108.541 111.218C109.713 111.929 111.186 111.917 112.346 111.187C113.532 110.471 115.016 110.471 116.201 111.187C117.387 111.902 118.871 111.902 120.056 111.187C120.606 110.869 121.214 110.861 121.826 110.977C122.525 111.107 123.173 110.584 123.173 109.874V94.6643C123.173 94.1578 122.762 93.7474 122.256 93.7474H106.29C105.784 93.7474 105.373 94.1578 105.373 94.6643V109.852C105.373 110.558 106.016 111.087 106.71 110.957C107.328 110.841 107.941 110.853 108.49 111.187Z" fill="url(#paint14_linear)"/>
<path d="M124.619 46.7617C124.5 46.7593 124.38 46.7582 124.26 46.7582C124.14 46.7582 124.02 46.7596 123.901 46.7617C111.7 47.0091 104.643 60.7432 111.365 70.9283L122.61 87.9659C123.391 89.15 125.129 89.15 125.91 87.9659L137.155 70.9283C143.877 60.7428 136.82 47.0088 124.619 46.7617ZM124.26 68.8753C120.631 68.8753 117.689 65.9335 117.689 62.3046C117.689 58.6756 120.631 55.7339 124.26 55.7339C127.889 55.7339 130.83 58.6756 130.83 62.3046C130.83 65.9335 127.889 68.8753 124.26 68.8753Z" fill="url(#paint15_linear)"/>
<path d="M75.2219 146.727L81.5583 153.063C86.7144 158.219 89.6114 165.213 89.6114 172.505C89.6114 187.69 77.3015 200 62.1165 200H54.7725C49.681 200 45.5537 195.873 45.5537 190.781V147.38C45.5537 139.114 48.8361 131.187 54.6808 125.342L74.449 105.578C76.429 103.598 79.0267 102.606 81.6243 102.606C84.222 102.606 86.8196 103.598 88.7996 105.578C96.4125 113.191 96.4125 125.536 88.7996 133.149L75.2219 146.727Z" fill="url(#paint16_linear)"/>
<path d="M89.6114 172.505C89.6114 165.213 86.7144 158.219 81.5583 153.063L75.2219 146.727L45.5537 176.395V190.781C45.5537 195.873 49.681 200 54.7725 200H62.1165C77.3015 200 89.6114 187.69 89.6114 172.505Z" fill="url(#paint17_linear)"/>
</g>
<defs>
<filter id="filter0_d" x="20" y="20" width="188" height="188" filterUnits="userSpaceOnUse" color-interpolation-filters="sRGB">
<feFlood flood-opacity="0" result="BackgroundImageFix"/>
<feColorMatrix in="SourceAlpha" type="matrix" values="0 0 0 0 0 0 0 0 0 0 0 0 0 0 0 0 0 0 127 0" result="hardAlpha"/>
<feOffset dy="4"/>
<feGaussianBlur stdDeviation="2"/>
<feColorMatrix type="matrix" values="0 0 0 0 0 0 0 0 0 0 0 0 0 0 0 0 0 0 0.25 0"/>
<feBlend mode="normal" in2="BackgroundImageFix" result="effect1_dropShadow"/>
<feBlend mode="normal" in="SourceGraphic" in2="effect1_dropShadow" result="shape"/>
</filter>
<linearGradient id="paint0_linear" x1="54.7961" y1="91.1176" x2="69.374" y2="91.1176" gradientUnits="userSpaceOnUse">
<stop stop-color="#FFDCBD"/>
<stop offset="1" stop-color="#FFA9B1"/>
</linearGradient>
<linearGradient id="paint1_linear" x1="52.3181" y1="38.0586" x2="190.142" y2="175.882" gradientUnits="userSpaceOnUse">
<stop stop-color="#537983"/>
<stop offset="1" stop-color="#3E5959"/>
</linearGradient>
<linearGradient id="paint2_linear" x1="181.757" y1="167.497" x2="18.5767" y2="4.31705" gradientUnits="userSpaceOnUse">
<stop stop-color="#537983"/>
<stop offset="1" stop-color="#3E5959"/>
</linearGradient>
<linearGradient id="paint3_linear" x1="124.259" y1="184.706" x2="124.259" y2="197.882" gradientUnits="userSpaceOnUse">
<stop stop-color="#384949" stop-opacity="0"/>
<stop offset="1" stop-color="#384949"/>
</linearGradient>
<linearGradient id="paint4_linear" x1="143.01" y1="181.704" x2="66.0687" y2="144.998" gradientUnits="userSpaceOnUse">
<stop stop-color="#384949" stop-opacity="0"/>
<stop offset="1" stop-color="#384949"/>
</linearGradient>
<linearGradient id="paint5_linear" x1="84.685" y1="70.4254" x2="207.661" y2="193.401" gradientUnits="userSpaceOnUse">
<stop stop-color="#EAF6FF"/>
<stop offset="0.2575" stop-color="#DCE8FA"/>
<stop offset="0.7423" stop-color="#B8C4ED"/>
<stop offset="1" stop-color="#A2AEE6"/>
</linearGradient>
<linearGradient id="paint6_linear" x1="97.3163" y1="151.414" x2="82.1398" y2="134.12" gradientUnits="userSpaceOnUse">
<stop stop-color="#8795DE" stop-opacity="0"/>
<stop offset="0.4678" stop-color="#7D8DDC" stop-opacity="0.468"/>
<stop offset="1" stop-color="#6C7FD8"/>
</linearGradient>
<linearGradient id="paint7_linear" x1="159.374" y1="100.121" x2="102.639" y2="43.3863" gradientUnits="userSpaceOnUse">
<stop stop-color="#8795DE" stop-opacity="0"/>
<stop offset="0.4678" stop-color="#7D8DDC" stop-opacity="0.468"/>
<stop offset="1" stop-color="#6C7FD8"/>
</linearGradient>
<linearGradient id="paint8_linear" x1="172.428" y1="171.597" x2="91.7158" y2="90.8847" gradientUnits="userSpaceOnUse">
<stop stop-color="#8795DE" stop-opacity="0"/>
<stop offset="0.4678" stop-color="#7D8DDC" stop-opacity="0.468"/>
<stop offset="1" stop-color="#6C7FD8"/>
</linearGradient>
<linearGradient id="paint9_linear" x1="101.253" y1="100.421" x2="156.578" y2="155.746" gradientUnits="userSpaceOnUse">
<stop stop-color="#FEE45A"/>
<stop offset="1" stop-color="#FE860A"/>
</linearGradient>
<linearGradient id="paint10_linear" x1="109.01" y1="148.191" x2="75.267" y2="114.448" gradientUnits="userSpaceOnUse">
<stop stop-color="#FE860A" stop-opacity="0"/>
<stop offset="1" stop-color="#FE7701"/>
</linearGradient>
<linearGradient id="paint11_linear" x1="154.214" y1="124.671" x2="82.8788" y2="73.9887" gradientUnits="userSpaceOnUse">
<stop stop-color="#FE860A" stop-opacity="0"/>
<stop offset="1" stop-color="#FE7701"/>
</linearGradient>
<linearGradient id="paint12_linear" x1="161.212" y1="109.24" x2="117.564" y2="155.272" gradientUnits="userSpaceOnUse">
<stop stop-color="#FE860A" stop-opacity="0"/>
<stop offset="1" stop-color="#FE7701"/>
</linearGradient>
<linearGradient id="paint13_linear" x1="124.26" y1="142.939" x2="124.26" y2="155.466" gradientUnits="userSpaceOnUse">
<stop stop-color="#FE860A" stop-opacity="0"/>
<stop offset="1" stop-color="#FE7701"/>
</linearGradient>
<linearGradient id="paint14_linear" x1="107.654" y1="95.6815" x2="127.363" y2="115.391" gradientUnits="userSpaceOnUse">
<stop stop-color="#EAF6FF"/>
<stop offset="0.2575" stop-color="#DCE8FA"/>
<stop offset="0.7423" stop-color="#B8C4ED"/>
<stop offset="1" stop-color="#A2AEE6"/>
</linearGradient>
<linearGradient id="paint15_linear" x1="122.13" y1="62.8767" x2="139.428" y2="80.1743" gradientUnits="userSpaceOnUse">
<stop stop-color="#FD4755"/>
<stop offset="0.1913" stop-color="#F64452"/>
<stop offset="0.4736" stop-color="#E23C4B"/>
<stop offset="0.8106" stop-color="#C22E40"/>
<stop offset="1" stop-color="#AC2538"/>
</linearGradient>
<linearGradient id="paint16_linear" x1="48.6582" y1="131.57" x2="91.3821" y2="174.294" gradientUnits="userSpaceOnUse">
<stop stop-color="#FFDCBD"/>
<stop offset="1" stop-color="#FFA9B1"/>
</linearGradient>
<linearGradient id="paint17_linear" x1="69.2484" y1="164.992" x2="73.4837" y2="138.169" gradientUnits="userSpaceOnUse">
<stop stop-color="#FFA9B1" stop-opacity="0"/>
<stop offset="0.9972" stop-color="#FFA78F"/>
</linearGradient>
<clipPath id="clip0">
<rect width="180" height="180" fill="white" transform="translate(24 20)"/>
</clipPath>
</defs>
</svg>
